<?xml version="1.0" encoding="utf-8"?>
<!-- Generator: Adobe Illustrator 16.0.0, SVG Export Plug-In . SVG Version: 6.00 Build 0)  -->
<!DOCTYPE svg PUBLIC "-//W3C//DTD SVG 1.1//EN" "http://www.w3.org/Graphics/SVG/1.1/DTD/svg11.dtd">
<svg version="1.1" id="Layer_1" xmlns="http://www.w3.org/2000/svg" xmlns:xlink="http://www.w3.org/1999/xlink" x="0px" y="0px"
	 width="165px" height="165px" viewBox="0 0 165 165" enable-background="new 0 0 165 165" xml:space="preserve">
<g>
	<g>
		<g>
			<linearGradient id="SVGID_1_" gradientUnits="userSpaceOnUse" x1="82.5005" y1="163.167" x2="82.5005" y2="1.8335">
				<stop  offset="0" style="stop-color:#0277BD"/>
				<stop  offset="1" style="stop-color:#039BE5"/>
			</linearGradient>
			<path fill="url(#SVGID_1_)" d="M82.5,1.833C37.949,1.833,1.833,37.949,1.833,82.5s36.116,80.667,80.667,80.667
				c44.551,0,80.667-36.115,80.667-80.667S127.052,1.833,82.5,1.833z"/>
		</g>
	</g>
	<path fill="#FFFFFF" d="M130.642,119.958c-0.889,0.434-1.773,0.499-2.878,0.489c-1.106-0.012-2.355-0.319-3.526-1.215
		c-1.395-0.604-2.709-1.795-4.165-3.652c-1.53-1.636-2.906-4.081-4.423-7.192c-1.085-2.222-2.312-4.739-3.317-7.55
		c-1.227-2.517-2.162-4.81-2.877-7.029c0.027,4.569-0.384,8.986-1.237,13.253c-0.928,4.487-2.294,8.452-3.953,12.193
		c-1.806,3.816-3.828,7.186-6.36,9.887c-2.536,3.071-5.356,5.181-8.319,6.624c-5.924,2.891-11.394,4.458-16.406,4.702
		c-5.014,0.245-9.576-0.464-13.39-2.27c-4.844-2.037-8.864-5.392-12.136-9.846c-3.272-4.456-6.097-9.494-8.698-14.827
		c-1.661-3.404-3.315-7.548-4.738-12.722c-1.279-4.876-2.405-10.193-2.939-15.8c-0.683-5.534-0.921-11.283-0.715-17.251
		c0.203-5.599,0.846-11.046,2.372-16.189c1.376-5.071,3.338-9.695,6.033-13.942c2.839-3.952,6.409-7.159,11-9.398
		c5.628-2.745,11.682-3.864,18.166-3.726c6.407,0.357,12.284,2.258,17.557,5.553c0.587,0.448,0.95,0.819,1.535,1.268
		c0.585,0.448,0.95,0.82,1.239,1.413c0.794,1.629,0.853,3.251,0.249,4.645c-0.68,1.615-1.943,2.781-3.426,3.503
		c-2.072,1.012-4.063,1.066-5.969,0.162c-1.25-0.307-2.573-0.762-3.67-1.51c-1.173-0.527-2.348-1.055-3.521-1.582
		c-2.204-0.759-4.555-1.445-7.275-2.135c-2.796-0.47-6.043,0.014-9.598,1.748c-2.518,1.228-4.526,3.124-6.17,5.392
		c-1.792,2.341-3.144,4.833-4.054,7.477c-1.058,2.716-1.676,5.584-1.998,8.308c-0.469,2.796-0.715,5.299-0.588,7.438
		c0.36,8.258,1.538,15.933,3.531,23.027c2.065,7.242,4.868,14.492,8.479,21.897c3.612,7.404,7.837,12.312,12.898,14.793
		c4.985,2.702,10.514,2.389,16.735-0.646c2.813-1.373,5.338-3.338,7.282-6.119c2.088-2.484,3.589-5.416,4.948-8.646
		c1.21-3.155,2.199-6.39,2.749-9.775c0.55-3.383,0.654-6.551,0.685-9.499c-0.069-0.516-0.062-1.253-0.054-1.99
		c0.007-0.736,0.162-1.545,0.023-2.578c-0.129-1.771-0.334-3.32-0.841-4.357c-0.44-0.151-0.953-0.451-1.689-0.458
		c-0.885,0.065-1.55,0.206-1.99,0.054c-1.117,1.094-2.306,2.041-3.493,2.987c-1.265,1.167-2.602,2.185-3.938,3.204
		c-1.785,1.604-3.493,2.987-5.126,4.149c-0.744,0.729-1.413,1.239-2.005,1.528c-0.816,0.58-1.557,0.942-2.148,1.23
		c-2.221,1.085-4.364,1.58-6.423,1.116c-2.134-0.242-3.598-1.361-4.608-3.436c-0.145-0.296-0.286-0.96-0.13-1.77
		c0.079-0.589,0.455-1.322,0.759-2.203c0.375-0.733,0.751-1.467,1.2-2.053c0.448-0.585,0.747-1.098,1.191-1.313l5.036-2.457
		c1.185-0.578,2.741-1.521,4.451-2.904c1.632-1.163,3.413-2.397,5.196-4.002c1.781-1.235,3.49-2.619,4.979-4.078
		c1.561-1.311,2.824-2.478,3.864-3.352c0.669-0.509,1.561-1.311,2.677-2.406c1.041-0.874,1.933-1.675,2.677-2.405
		c0.889-0.433,1.923-0.57,3.324-0.704c1.473,0.015,2.87,0.25,4.268,0.484c1.472,0.383,2.722,0.69,3.895,1.218
		c1.175,0.527,2.052,1.2,2.342,1.792c0.287,0.592,0.429,1.257,0.422,1.994s-0.162,1.546-0.17,2.283
		c-0.151,0.44-0.16,1.178-0.391,2.207c-0.011,1.104,0.131,1.77,0.274,2.066c0.433,0.889,0.867,1.777,1.3,2.666
		c0.286,0.961,0.571,1.922,0.933,2.662c0.57,1.921,1.217,3.623,1.863,5.324c0.57,1.922,1.364,3.552,2.159,5.181
		c1.3,2.666,2.528,5.183,4.126,7.704c1.595,2.523,3.34,4.972,5.089,7.052c0.436,0.52,0.873,1.041,1.311,1.561
		c0.509,0.668,1.018,1.337,1.604,1.784c0.509,0.668,0.946,1.188,1.311,1.562c0.289,0.593,0.654,0.964,0.799,1.261
		c0.867,1.777,0.853,3.25,0.321,4.793C133.388,118.07,132.271,119.164,130.642,119.958z"/>
</g>
</svg>
